<svg version="1.1" xmlns="http://www.w3.org/2000/svg" viewBox="0 0 1982.4738670520514 2231.191926453972" width="1982.4738670520514" height="2231.191926453972">
  <!-- svg-source:excalidraw -->
  
  <defs>
    <style class="style-fonts">
      @font-face {
        font-family: "Virgil";
        src: url("https://excalidraw.com/Virgil.woff2");
      }
      @font-face {
        font-family: "Cascadia";
        src: url("https://excalidraw.com/Cascadia.woff2");
      }
    </style>
    
  </defs>
  <rect x="0" y="0" width="1982.4738670520514" height="2231.191926453972" fill="#ffffff"></rect><g stroke-linecap="round" transform="translate(237.47887133494885 10) rotate(0 667.9013572672901 272)"><path d="M32 0 M32 0 C497.29 4.34, 962.94 4.88, 1303.8 0 M32 0 C502.65 3.28, 972.76 3.63, 1303.8 0 M1303.8 0 C1325.57 -0.21, 1334.47 9.72, 1335.8 32 M1303.8 0 C1324.23 0.19, 1337.16 11.14, 1335.8 32 M1335.8 32 C1336.14 199.73, 1336.53 369.12, 1335.8 512 M1335.8 32 C1336.56 187.01, 1336.33 342.08, 1335.8 512 M1335.8 512 C1334.16 533.71, 1325.66 545.67, 1303.8 544 M1335.8 512 C1334.04 534.88, 1325.89 544.94, 1303.8 544 M1303.8 544 C830.28 546.79, 354.92 545.57, 32 544 M1303.8 544 C928.3 546.53, 552.88 546.32, 32 544 M32 544 C12.56 544.04, -0.38 533.01, 0 512 M32 544 C8.9 545.77, 0.5 535.59, 0 512 M0 512 C0.34 368.03, 1.33 224.4, 0 32 M0 512 C-1.85 411.69, -2.14 310.56, 0 32 M0 32 C-1.26 9.93, 9.19 -1.57, 32 0 M0 32 C0.8 10.53, 9.53 -0.36, 32 0" stroke="#1e1e1e" stroke-width="1" fill="none"></path></g><g transform="translate(727.9738670520516 37.46715809691966) rotate(0 71.8399429321289 12.5)"><text x="0" y="0" font-family="Virgil, Segoe UI Emoji" font-size="20px" fill="#1e1e1e" text-anchor="start" style="white-space: pre;" direction="ltr" dominant-baseline="text-before-edge">Spring Backend</text></g><g stroke-linecap="round" transform="translate(707.9738670520516 155.46715809691966) rotate(0 138.5 125.5)"><path d="M32 0 M32 0 C110.13 2.31, 188.06 1.13, 245 0 M32 0 C112 0.47, 191.29 -0.56, 245 0 M245 0 C265.12 1.37, 275.59 12.16, 277 32 M245 0 C266.02 -0.96, 277.26 10.56, 277 32 M277 32 C275 71.04, 275.09 110.06, 277 219 M277 32 C275.83 73.76, 275.81 114.77, 277 219 M277 219 C278.88 241.93, 266.84 250.24, 245 251 M277 219 C275.27 240.76, 264.38 252.26, 245 251 M245 251 C173.49 249.83, 97.88 250.25, 32 251 M245 251 C193.74 251.22, 143.02 250.74, 32 251 M32 251 C8.97 251.58, -0.35 241.53, 0 219 M32 251 C9.66 251.98, 0.49 238.55, 0 219 M0 219 C0.74 181.87, -2.01 140.38, 0 32 M0 219 C0.07 175.9, 1.05 131.21, 0 32 M0 32 C0.98 8.95, 10.29 1.45, 32 0 M0 32 C-1.36 11.69, 8.72 0.55, 32 0" stroke="#1e1e1e" stroke-width="1" fill="none"></path></g><g transform="translate(738.9738670520516 187.46715809691966) rotate(0 75.49993133544922 12.5)"><text x="0" y="0" font-family="Virgil, Segoe UI Emoji" font-size="20px" fill="#1e1e1e" text-anchor="start" style="white-space: pre;" direction="ltr" dominant-baseline="text-before-edge">Rest Controller</text></g><g stroke-linecap="round" transform="translate(1253.9738670520514 152.46715809691966) rotate(0 146 131)"><path d="M32 0 M32 0 C111.2 -2.67, 190.95 -1.81, 260 0 M32 0 C117.82 -1.47, 203.04 -1.59, 260 0 M260 0 C280.95 1.45, 290.81 11.55, 292 32 M260 0 C279.38 0.55, 291.03 11.66, 292 32 M292 32 C289.72 100.32, 291.3 174.11, 292 230 M292 32 C291.88 96.48, 291.89 159.51, 292 230 M292 230 C291.13 252.92, 279.51 262.93, 260 262 M292 230 C293.62 249.7, 280.4 260.74, 260 262 M260 262 C204.92 262.03, 145.85 259.49, 32 262 M260 262 C177.09 260.39, 92.64 261.72, 32 262 M32 262 C12.1 262.21, 0.71 252.5, 0 230 M32 262 C8.82 262.64, -1.19 249.83, 0 230 M0 230 C0.47 165.8, -1.24 103.11, 0 32 M0 230 C1.5 180.53, 1.22 130.02, 0 32 M0 32 C1.8 11.23, 8.85 -0.94, 32 0 M0 32 C0.57 8.59, 8.54 0.42, 32 0" stroke="#1e1e1e" stroke-width="1" fill="none"></path></g><g transform="translate(1286.9738670520514 187.46715809691966) rotate(0 52.93994140625 37.5)"><text x="0" y="0" font-family="Virgil, Segoe UI Emoji" font-size="20px" fill="#1e1e1e" text-anchor="start" style="white-space: pre;" direction="ltr" dominant-baseline="text-before-edge">Repository:</text><text x="0" y="25" font-family="Virgil, Segoe UI Emoji" font-size="20px" fill="#1e1e1e" text-anchor="start" style="white-space: pre;" direction="ltr" dominant-baseline="text-before-edge">- JDBC</text><text x="0" y="50" font-family="Virgil, Segoe UI Emoji" font-size="20px" fill="#1e1e1e" text-anchor="start" style="white-space: pre;" direction="ltr" dominant-baseline="text-before-edge">- JPA</text></g><g stroke-linecap="round" transform="translate(1758.9738670520514 141.46715809691966) rotate(0 105.5 14)"><path d="M79.12 -0.18 C92.89 -0.81, 110.8 -0.07, 125.78 0.44 C140.76 0.96, 156.77 1.61, 169 2.9 C181.23 4.19, 192.05 6.44, 199.16 8.18 C206.26 9.93, 211.04 11.47, 211.61 13.37 C212.19 15.28, 208.99 17.64, 202.62 19.63 C196.26 21.61, 185.1 23.9, 173.41 25.28 C161.73 26.67, 147.04 27.57, 132.52 27.93 C118.01 28.3, 101.4 27.78, 86.34 27.47 C71.27 27.15, 54.53 27.13, 42.11 26.04 C29.69 24.94, 18.65 22.87, 11.8 20.89 C4.95 18.91, 1.41 16.39, 1.03 14.13 C0.65 11.88, 3.47 9.18, 9.53 7.38 C15.59 5.59, 23.91 4.56, 37.37 3.37 C50.83 2.18, 79.73 0.67, 90.29 0.23 C100.85 -0.2, 100.53 0.7, 100.7 0.76 M134.63 -0.06 C148.93 0.03, 164.72 1.02, 176.22 2.71 C187.73 4.4, 198.08 7.92, 203.64 10.06 C209.2 12.21, 210.58 13.65, 209.57 15.58 C208.55 17.51, 204.63 20.21, 197.56 21.63 C190.48 23.06, 179.47 22.95, 167.1 24.14 C154.74 25.33, 138.6 28.36, 123.38 28.78 C108.16 29.19, 90.6 27.21, 75.78 26.62 C60.96 26.03, 45.7 26.66, 34.45 25.26 C23.19 23.86, 13.76 20.29, 8.24 18.24 C2.73 16.19, 0.73 15, 1.38 12.94 C2.02 10.87, 4.72 7.79, 12.13 5.85 C19.53 3.91, 33.15 2.5, 45.8 1.32 C58.45 0.15, 73.29 -0.92, 88.03 -1.19 C102.77 -1.46, 126.49 -0.66, 134.26 -0.32 C142.04 0.01, 135.19 0.31, 134.67 0.82" stroke="#1e1e1e" stroke-width="1" fill="none"></path></g><g stroke-linecap="round"><g transform="translate(1759.9738670520514 155.46715809691966) rotate(0 2 112.5)"><path d="M0.48 1.16 C0.92 38.81, 3.21 188.28, 3.61 225.65 M-0.72 0.73 C-0.56 38.05, 1.47 186.78, 2.45 223.88" stroke="#1e1e1e" stroke-width="1" fill="none"></path></g></g><mask></mask><g stroke-linecap="round"><g transform="translate(1969.9738670520514 154.46715809691966) rotate(0 1 114.5)"><path d="M0.16 -0.78 C0.59 37.28, 1.65 190.74, 2.03 229.11 M-1.22 1.42 C-0.9 39.64, 0.58 193.06, 1.1 230.71" stroke="#1e1e1e" stroke-width="1" fill="none"></path></g></g><mask></mask><g stroke-linecap="round" transform="translate(1761.4738670520514 367.46715809691966) rotate(0 105.5 14)"><path d="M127.66 -0.52 C141.97 -0.34, 157.81 2.41, 169.9 3.64 C181.99 4.87, 193.21 5.29, 200.2 6.85 C207.19 8.41, 211.66 10.69, 211.86 13.02 C212.06 15.35, 207.94 18.86, 201.39 20.84 C194.85 22.81, 184.36 23.74, 172.61 24.88 C160.86 26.02, 145.7 27.36, 130.89 27.67 C116.07 27.98, 98.92 27.26, 83.71 26.73 C68.5 26.21, 51.9 25.77, 39.64 24.53 C27.39 23.3, 16.66 20.93, 10.17 19.33 C3.67 17.73, 0.53 16.93, 0.65 14.91 C0.77 12.9, 4.45 9.06, 10.88 7.26 C17.31 5.46, 27.58 5.39, 39.23 4.13 C50.88 2.87, 65.75 0.34, 80.77 -0.31 C95.8 -0.97, 120.69 0.12, 129.39 0.22 C138.09 0.31, 133.38 -0.08, 132.97 0.26 M143.22 2.27 C157.29 2.47, 171.31 2.33, 182.02 3.62 C192.72 4.92, 202.82 7.71, 207.46 10.02 C212.11 12.33, 212.56 15.51, 209.88 17.49 C207.2 19.47, 199.98 20.46, 191.38 21.9 C182.77 23.34, 171.13 25.15, 158.25 26.14 C145.37 27.13, 129.52 27.78, 114.08 27.85 C98.63 27.93, 80.15 27.34, 65.6 26.58 C51.04 25.82, 37.17 24.67, 26.74 23.32 C16.32 21.96, 7.19 20.49, 3.06 18.46 C-1.07 16.44, -0.54 13.23, 1.98 11.17 C4.5 9.1, 9.47 7.84, 18.16 6.09 C26.85 4.33, 40.78 1.53, 54.12 0.65 C67.47 -0.24, 83.29 0.51, 98.23 0.78 C113.18 1.05, 136.22 2.34, 143.79 2.27 C151.36 2.2, 144.27 0.56, 143.67 0.34" stroke="#1e1e1e" stroke-width="1" fill="none"></path></g><g stroke-linecap="round"><g transform="translate(1548.9902693031668 267.9595229244937) rotate(0 108.49179887444245 -1.246182413787011)"><path d="M0.34 0.55 C36.44 0.25, 180.35 -2.55, 216.46 -2.96 M-0.94 -0.2 C34.97 -0.25, 179.04 -1.05, 215.24 -1.67" stroke="#1e1e1e" stroke-width="1" fill="none"></path></g><g transform="translate(1548.9902693031668 267.9595229244937) rotate(0 108.49179887444245 -1.246182413787011)"><path d="M188.08 8.01 C194.65 5.8, 204.59 1.09, 215.1 -0.67 M186.54 8.47 C192.88 5.6, 200.01 3.07, 215.63 -0.7" stroke="#1e1e1e" stroke-width="1" fill="none"></path></g><g transform="translate(1548.9902693031668 267.9595229244937) rotate(0 108.49179887444245 -1.246182413787011)"><path d="M187.86 -12.51 C194.3 -8.75, 204.31 -7.49, 215.1 -0.67 M186.33 -12.05 C192.89 -10.03, 200.07 -7.68, 215.63 -0.7" stroke="#1e1e1e" stroke-width="1" fill="none"></path></g></g><mask></mask><g transform="translate(1806.9738670520514 420.46715809691966) rotate(0 0.00004999999998744897 0.00004999999998744897)" stroke="none"><path fill="#1e1e1e" d="M 1.57,-1.57 Q 1.57,-1.57 1.77,-1.27 1.98,-0.98 2.09,-0.64 2.20,-0.29 2.19,0.05 2.18,0.41 2.05,0.75 1.93,1.09 1.70,1.37 1.48,1.65 1.18,1.84 0.87,2.04 0.52,2.12 0.18,2.21 -0.17,2.18 -0.53,2.15 -0.86,2.01 -1.19,1.87 -1.46,1.63 -1.73,1.39 -1.90,1.07 -2.08,0.76 -2.15,0.41 -2.21,0.05 -2.17,-0.29 -2.12,-0.65 -1.96,-0.97 -1.80,-1.29 -1.54,-1.54 -1.29,-1.80 -0.97,-1.96 -0.65,-2.12 -0.29,-2.17 0.06,-2.21 0.41,-2.15 0.76,-2.08 1.07,-1.90 1.39,-1.73 1.63,-1.46 1.87,-1.19 2.01,-0.86 2.15,-0.53 2.18,-0.17 2.21,0.18 2.12,0.52 2.03,0.87 1.84,1.18 1.65,1.48 1.37,1.70 1.09,1.93 0.75,2.05 0.41,2.18 0.05,2.19 -0.30,2.20 -0.64,2.09 -0.98,1.98 -1.27,1.77 -1.57,1.56 -1.57,1.57 -1.57,1.57 -1.73,1.35 -1.90,1.14 -2.01,0.90 -2.12,0.66 -2.16,0.39 -2.21,0.13 -2.20,-0.13 -2.18,-0.40 -2.10,-0.65 -2.02,-0.91 -1.88,-1.14 -1.74,-1.36 -1.55,-1.55 -1.36,-1.74 -1.14,-1.88 -0.91,-2.02 -0.65,-2.10 -0.40,-2.18 -0.13,-2.20 0.13,-2.21 0.39,-2.16 0.66,-2.12 0.90,-2.01 1.14,-1.90 1.35,-1.73 1.57,-1.57 1.57,-1.57 L 1.57,-1.57 Z"></path></g><g transform="translate(1806.9738670520514 420.46715809691966) rotate(0 0.00004999999998744897 0.00004999999998744897)" stroke="none"><path fill="#1e1e1e" d="M 1.57,-1.57 Q 1.57,-1.57 1.77,-1.27 1.98,-0.98 2.09,-0.64 2.20,-0.29 2.19,0.05 2.18,0.41 2.05,0.75 1.93,1.09 1.70,1.37 1.48,1.65 1.18,1.84 0.87,2.04 0.52,2.12 0.18,2.21 -0.17,2.18 -0.53,2.15 -0.86,2.01 -1.19,1.87 -1.46,1.63 -1.73,1.39 -1.90,1.07 -2.08,0.76 -2.15,0.41 -2.21,0.05 -2.17,-0.29 -2.12,-0.65 -1.96,-0.97 -1.80,-1.29 -1.54,-1.54 -1.29,-1.80 -0.97,-1.96 -0.65,-2.12 -0.29,-2.17 0.06,-2.21 0.41,-2.15 0.76,-2.08 1.07,-1.90 1.39,-1.73 1.63,-1.46 1.87,-1.19 2.01,-0.86 2.15,-0.53 2.18,-0.17 2.21,0.18 2.12,0.52 2.03,0.87 1.84,1.18 1.65,1.48 1.37,1.70 1.09,1.93 0.75,2.05 0.41,2.18 0.05,2.19 -0.30,2.20 -0.64,2.09 -0.98,1.98 -1.27,1.77 -1.57,1.56 -1.57,1.57 -1.57,1.57 -1.73,1.35 -1.90,1.14 -2.01,0.90 -2.12,0.66 -2.16,0.39 -2.21,0.13 -2.20,-0.13 -2.18,-0.40 -2.10,-0.65 -2.02,-0.91 -1.88,-1.14 -1.74,-1.36 -1.55,-1.55 -1.36,-1.74 -1.14,-1.88 -0.91,-2.02 -0.65,-2.10 -0.40,-2.18 -0.13,-2.20 0.13,-2.21 0.39,-2.16 0.66,-2.12 0.90,-2.01 1.14,-1.90 1.35,-1.73 1.57,-1.57 1.57,-1.57 L 1.57,-1.57 Z"></path></g><g transform="translate(1806.9738670520514 420.46715809691966) rotate(0 0.00004999999998744897 0.00004999999998744897)" stroke="none"><path fill="#1e1e1e" d="M 1.57,-1.57 Q 1.57,-1.57 1.77,-1.27 1.98,-0.98 2.09,-0.64 2.20,-0.29 2.19,0.05 2.18,0.41 2.05,0.75 1.93,1.09 1.70,1.37 1.48,1.65 1.18,1.84 0.87,2.04 0.52,2.12 0.18,2.21 -0.17,2.18 -0.53,2.15 -0.86,2.01 -1.19,1.87 -1.46,1.63 -1.73,1.39 -1.90,1.07 -2.08,0.76 -2.15,0.41 -2.21,0.05 -2.17,-0.29 -2.12,-0.65 -1.96,-0.97 -1.80,-1.29 -1.54,-1.54 -1.29,-1.80 -0.97,-1.96 -0.65,-2.12 -0.29,-2.17 0.06,-2.21 0.41,-2.15 0.76,-2.08 1.07,-1.90 1.39,-1.73 1.63,-1.46 1.87,-1.19 2.01,-0.86 2.15,-0.53 2.18,-0.17 2.21,0.18 2.12,0.52 2.03,0.87 1.84,1.18 1.65,1.48 1.37,1.70 1.09,1.93 0.75,2.05 0.41,2.18 0.05,2.19 -0.30,2.20 -0.64,2.09 -0.98,1.98 -1.27,1.77 -1.57,1.56 -1.57,1.57 -1.57,1.57 -1.73,1.35 -1.90,1.14 -2.01,0.90 -2.12,0.66 -2.16,0.39 -2.21,0.13 -2.20,-0.13 -2.18,-0.40 -2.10,-0.65 -2.02,-0.91 -1.88,-1.14 -1.74,-1.36 -1.55,-1.55 -1.36,-1.74 -1.14,-1.88 -0.91,-2.02 -0.65,-2.10 -0.40,-2.18 -0.13,-2.20 0.13,-2.21 0.39,-2.16 0.66,-2.12 0.90,-2.01 1.14,-1.90 1.35,-1.73 1.57,-1.57 1.57,-1.57 L 1.57,-1.57 Z"></path></g><g transform="translate(1829.9738670520514 257.46715809691966) rotate(0 35.58998107910156 12.5)"><text x="0" y="0" font-family="Virgil, Segoe UI Emoji" font-size="20px" fill="#1e1e1e" text-anchor="start" style="white-space: pre;" direction="ltr" dominant-baseline="text-before-edge">RDBMS</text></g><g stroke-linecap="round" transform="translate(710.9738670520516 670.4671580969197) rotate(0 114.5 121)"><path d="M32 0 M32 0 C92.11 2, 151.19 -1.81, 197 0 M32 0 C87.48 -1.83, 142.73 -0.31, 197 0 M197 0 C219.58 0.23, 228.38 10.14, 229 32 M197 0 C217.86 2.18, 230.86 8.63, 229 32 M229 32 C228.79 74.53, 230.22 119.74, 229 210 M229 32 C227.91 71.12, 227.72 108.24, 229 210 M229 210 C228.19 229.6, 218.98 241.21, 197 242 M229 210 C227.22 229.53, 218.91 243.1, 197 242 M197 242 C157.39 242.24, 116.02 244.02, 32 242 M197 242 C138.72 240.22, 78.01 241.62, 32 242 M32 242 C10.24 243.35, 1.36 230.08, 0 210 M32 242 C8.99 240.71, 1.59 233.51, 0 210 M0 210 C-1.39 147.26, -1.17 85.74, 0 32 M0 210 C-0.05 163.29, 0.27 117.16, 0 32 M0 32 C-1.51 10.85, 11.41 -1.66, 32 0 M0 32 C0.39 10.64, 8.45 -0.98, 32 0" stroke="#1e1e1e" stroke-width="1" fill="none"></path></g><g transform="translate(744.9738670520516 699.4671580969197) rotate(0 26.08997344970703 62.5)"><text x="0" y="0" font-family="Virgil, Segoe UI Emoji" font-size="20px" fill="#1e1e1e" text-anchor="start" style="white-space: pre;" direction="ltr" dominant-baseline="text-before-edge">Movie</text><text x="0" y="25" font-family="Virgil, Segoe UI Emoji" font-size="20px" fill="#1e1e1e" text-anchor="start" style="white-space: pre;" direction="ltr" dominant-baseline="text-before-edge"></text><text x="0" y="50" font-family="Virgil, Segoe UI Emoji" font-size="20px" fill="#1e1e1e" text-anchor="start" style="white-space: pre;" direction="ltr" dominant-baseline="text-before-edge">id</text><text x="0" y="75" font-family="Virgil, Segoe UI Emoji" font-size="20px" fill="#1e1e1e" text-anchor="start" style="white-space: pre;" direction="ltr" dominant-baseline="text-before-edge">title</text><text x="0" y="100" font-family="Virgil, Segoe UI Emoji" font-size="20px" fill="#1e1e1e" text-anchor="start" style="white-space: pre;" direction="ltr" dominant-baseline="text-before-edge">year</text></g><g stroke-linecap="round" transform="translate(1288.9738670520514 666.4671580969197) rotate(0 129 131.5)"><path d="M32 0 M32 0 C99.22 -1.3, 167.67 -0.22, 226 0 M32 0 C82.29 0.66, 132.96 0.71, 226 0 M226 0 C245.83 0.18, 258.75 9.01, 258 32 M226 0 C247.73 -0.03, 255.79 9.69, 258 32 M258 32 C257.34 73.72, 259.63 116.05, 258 231 M258 32 C257.39 107.13, 256.08 183, 258 231 M258 231 C256.47 254.26, 248.58 263.99, 226 263 M258 231 C255.95 254.05, 246.1 263.28, 226 263 M226 263 C158.84 263.47, 90.52 265.98, 32 263 M226 263 C168.67 262.56, 110.25 262.25, 32 263 M32 263 C8.78 264.59, 0 254.19, 0 231 M32 263 C12.9 264.96, -1.84 251.72, 0 231 M0 231 C1.27 185.33, 1.75 145.36, 0 32 M0 231 C1.19 187.12, 0.93 144.36, 0 32 M0 32 C-0.4 10.16, 9.11 -0.25, 32 0 M0 32 C0.31 9.29, 9.08 1.57, 32 0" stroke="#1e1e1e" stroke-width="1" fill="none"></path></g><g transform="translate(1331.9738670520514 695.4671580969197) rotate(0 45.63995361328125 62.5)"><text x="0" y="0" font-family="Virgil, Segoe UI Emoji" font-size="20px" fill="#1e1e1e" text-anchor="start" style="white-space: pre;" direction="ltr" dominant-baseline="text-before-edge">Person</text><text x="0" y="25" font-family="Virgil, Segoe UI Emoji" font-size="20px" fill="#1e1e1e" text-anchor="start" style="white-space: pre;" direction="ltr" dominant-baseline="text-before-edge"></text><text x="0" y="50" font-family="Virgil, Segoe UI Emoji" font-size="20px" fill="#1e1e1e" text-anchor="start" style="white-space: pre;" direction="ltr" dominant-baseline="text-before-edge">id</text><text x="0" y="75" font-family="Virgil, Segoe UI Emoji" font-size="20px" fill="#1e1e1e" text-anchor="start" style="white-space: pre;" direction="ltr" dominant-baseline="text-before-edge">name</text><text x="0" y="100" font-family="Virgil, Segoe UI Emoji" font-size="20px" fill="#1e1e1e" text-anchor="start" style="white-space: pre;" direction="ltr" dominant-baseline="text-before-edge">birthdate</text></g><g stroke-linecap="round"><g transform="translate(948.5178086919046 722.7974457050447) rotate(0 170.5587572179253 1.3951636582243623)"><path d="M-0.37 0.45 C56.37 0.99, 284.37 3.16, 341.41 3.52 M1.64 -0.35 C58.16 -0.19, 283.97 1.08, 340.62 1.78" stroke="#1e1e1e" stroke-width="1" fill="none"></path></g></g><mask></mask><g stroke-linecap="round"><g transform="translate(945.0298995463437 873.475120793273) rotate(0 173.34908453437396 1.743954572780467)"><path d="M0.62 -0.99 C58.51 -0.42, 288.81 3.89, 346.57 4.59 M-0.51 1.11 C57.28 1.88, 287.69 2.49, 345.56 3.05" stroke="#1e1e1e" stroke-width="1" fill="none"></path></g></g><mask></mask><g transform="translate(1203.1351763178463 696.2893361987823) rotate(0 38.15995788574219 12.5)"><text x="0" y="0" font-family="Virgil, Segoe UI Emoji" font-size="20px" fill="#1e1e1e" text-anchor="start" style="white-space: pre;" direction="ltr" dominant-baseline="text-before-edge">director</text></g><g transform="translate(1231.038449482333 735.3539186290637) rotate(0 15.069992065429688 12.5)"><text x="0" y="0" font-family="Virgil, Segoe UI Emoji" font-size="20px" fill="#1e1e1e" text-anchor="start" style="white-space: pre;" direction="ltr" dominant-baseline="text-before-edge">0..1</text></g><g transform="translate(1203.1351763178463 853.2452477490202) rotate(0 32.60997009277344 12.5)"><text x="0" y="0" font-family="Virgil, Segoe UI Emoji" font-size="20px" fill="#1e1e1e" text-anchor="start" style="white-space: pre;" direction="ltr" dominant-baseline="text-before-edge">actors</text></g><g transform="translate(1238.7118496025669 883.9388482299554) rotate(0 5.159996032714844 12.5)"><text x="0" y="0" font-family="Virgil, Segoe UI Emoji" font-size="20px" fill="#1e1e1e" text-anchor="start" style="white-space: pre;" direction="ltr" dominant-baseline="text-before-edge">*</text></g><g stroke-linecap="round"><g transform="translate(939.4492449134465 738.8418277746246) rotate(0 -113.35704723072746 -1.3951636582243623)"><path d="M0.93 0.05 C-36.84 -0.39, -188.98 -2.71, -227.02 -3.32 M-0.03 -0.97 C-37.96 -1.2, -190.06 -1.77, -228.12 -2.06" stroke="#1e1e1e" stroke-width="1" fill="none"></path></g></g><mask></mask><g stroke-linecap="round"><g transform="translate(1291.0304867859795 738.8418277746246) rotate(0 127.6574747275269 1.0463727436682575)"><path d="M1.12 -0.25 C43.71 0.02, 213.82 0.41, 256.21 0.9 M0.25 -1.42 C42.7 -1, 213.32 1.46, 255.73 1.8" stroke="#1e1e1e" stroke-width="1" fill="none"></path></g></g><mask></mask><g transform="translate(952.7032996665777 701.1724090025674) rotate(0 70.99992370605469 12.5)"><text x="0" y="0" font-family="Virgil, Segoe UI Emoji" font-size="20px" fill="#1e1e1e" text-anchor="start" style="white-space: pre;" direction="ltr" dominant-baseline="text-before-edge">directedMovies</text></g><g transform="translate(954.098463324802 848.1283205528053) rotate(0 61.599937438964844 12.5)"><text x="0" y="0" font-family="Virgil, Segoe UI Emoji" font-size="20px" fill="#1e1e1e" text-anchor="start" style="white-space: pre;" direction="ltr" dominant-baseline="text-before-edge">playedMovies</text></g><g transform="translate(955.4936269830263 740.2369914328489) rotate(0 5.159996032714844 12.5)"><text x="0" y="0" font-family="Virgil, Segoe UI Emoji" font-size="20px" fill="#1e1e1e" text-anchor="start" style="white-space: pre;" direction="ltr" dominant-baseline="text-before-edge">*</text></g><g transform="translate(954.0984633248021 883.9388482299556) rotate(0 5.159996032714844 12.5)"><text x="0" y="0" font-family="Virgil, Segoe UI Emoji" font-size="20px" fill="#1e1e1e" text-anchor="start" style="white-space: pre;" direction="ltr" dominant-baseline="text-before-edge">*</text></g><g stroke-linecap="round"><g transform="translate(1118.7277749952736 874.8702844514975) rotate(0 0.6975818291122096 37.669418772057156)"><path d="M1.13 -0.16 C1.34 12.22, 1.64 62.02, 1.68 74.54" stroke="#1e1e1e" stroke-width="1.5" fill="none" stroke-dasharray="1.5 7"></path></g></g><mask></mask><g stroke-linecap="round" transform="translate(1044.0865192802717 943.9308855336022) rotate(0 90.6856377845819 65.57269193654383)"><path d="M32 0 M32 0 C60.55 -0.06, 84.5 -2.93, 149.37 0 M32 0 C56.32 1.57, 82.95 0.48, 149.37 0 M149.37 0 C168.94 0.6, 182.13 11.52, 181.37 32 M149.37 0 C172.14 0.68, 180.37 10.89, 181.37 32 M181.37 32 C179.9 59.94, 180.53 86.08, 181.37 99.15 M181.37 32 C181.44 54.22, 180.88 76.54, 181.37 99.15 M181.37 99.15 C182.2 121.88, 170.25 130.11, 149.37 131.15 M181.37 99.15 C183.17 121.06, 171.36 131.79, 149.37 131.15 M149.37 131.15 C106.71 132.02, 66.3 131.27, 32 131.15 M149.37 131.15 C113.48 131.66, 78.38 130.47, 32 131.15 M32 131.15 C8.91 129.42, 0.66 120.69, 0 99.15 M32 131.15 C10.51 129.52, -2.24 119.24, 0 99.15 M0 99.15 C-0.02 78.12, -0.65 56.22, 0 32 M0 99.15 C-0.62 81.97, 0.66 66.4, 0 32 M0 32 C-0.12 12.22, 12.47 1.34, 32 0 M0 32 C0.3 11.73, 8.49 -0.42, 32 0" stroke="#1e1e1e" stroke-width="1" fill="none"></path></g><g transform="translate(1074.082537932095 963.463176748743) rotate(0 20.59998321533203 12.5)"><text x="0" y="0" font-family="Virgil, Segoe UI Emoji" font-size="20px" fill="#1e1e1e" text-anchor="start" style="white-space: pre;" direction="ltr" dominant-baseline="text-before-edge">Play</text></g><g stroke-linecap="round"><g transform="translate(1044.0865192802717 994.8543590587905) rotate(0 90.33684687002585 0.34879091455604794)"><path d="M-0.47 0.28 C29.51 0.16, 150.66 -0.35, 180.68 -0.45 M1.48 -0.62 C31.23 -0.66, 149.65 0.31, 179.73 0.48" stroke="#1e1e1e" stroke-width="1" fill="none"></path></g></g><mask></mask><g transform="translate(1065.0139741536368 1013.6890684448191) rotate(0 17.939979553222656 12.5)"><text x="0" y="0" font-family="Virgil, Segoe UI Emoji" font-size="20px" fill="#1e1e1e" text-anchor="start" style="white-space: pre;" direction="ltr" dominant-baseline="text-before-edge">role</text></g><g stroke-linecap="round" transform="translate(888.525771388258 1206.221653279778) rotate(0 174.6294749895078 80.57070126245549)"><path d="M32 0 M32 0 C111.87 0.49, 195.06 -0.74, 317.26 0 M32 0 C100.08 -0.33, 168.22 -0.41, 317.26 0 M317.26 0 C339.9 -1.7, 349.62 12.03, 349.26 32 M317.26 0 C339.05 1.68, 347.18 12.9, 349.26 32 M349.26 32 C347.18 58.38, 348.12 85.41, 349.26 129.14 M349.26 32 C349.58 57.85, 349.28 85.17, 349.26 129.14 M349.26 129.14 C347.69 148.89, 337.75 160.44, 317.26 161.14 M349.26 129.14 C348.93 149.26, 336.42 159.92, 317.26 161.14 M317.26 161.14 C204.91 159.88, 93.29 159.2, 32 161.14 M317.26 161.14 C227.91 159.26, 137.5 159.17, 32 161.14 M32 161.14 C10.25 160.25, 1.9 150.51, 0 129.14 M32 161.14 C12.28 161.28, 1.72 152.77, 0 129.14 M0 129.14 C0.38 92.53, -0.59 54.59, 0 32 M0 129.14 C-1.28 91.55, -0.1 55.67, 0 32 M0 32 C0.05 10.01, 10.31 0.51, 32 0 M0 32 C0.36 11.62, 11.92 0.91, 32 0" stroke="#1e1e1e" stroke-width="1" fill="none"></path></g><g transform="translate(915.0338808945205 1234.8225082733766) rotate(0 152.08987426757812 12.5)"><text x="0" y="0" font-family="Virgil, Segoe UI Emoji" font-size="20px" fill="#1e1e1e" text-anchor="start" style="white-space: pre;" direction="ltr" dominant-baseline="text-before-edge">EntityManager (JPA/Hibernate)</text></g><g stroke-linecap="round" transform="translate(872.4813893186782 1165.0643253621597) rotate(0 94.17354693014278 121.3792382655173)"><path d="M32 0 M32 0 C80.37 1.16, 127.07 0.47, 156.35 0 M32 0 C78.66 -0.6, 126.96 0.33, 156.35 0 M156.35 0 C177.73 -0.66, 187.99 11.18, 188.35 32 M156.35 0 C178.04 0.95, 189.6 11.58, 188.35 32 M188.35 32 C190.72 99.84, 190.94 167.2, 188.35 210.76 M188.35 32 C188.03 101.75, 187.95 172.37, 188.35 210.76 M188.35 210.76 C190.15 233.41, 178.46 243.96, 156.35 242.76 M188.35 210.76 C189.9 230.68, 175.77 241.83, 156.35 242.76 M156.35 242.76 C106.84 241.77, 59.38 241.77, 32 242.76 M156.35 242.76 C127.18 243.05, 96.99 243.19, 32 242.76 M32 242.76 C11.71 242.66, 0.63 233.68, 0 210.76 M32 242.76 C9.54 241.55, 1.16 230.55, 0 210.76 M0 210.76 C2.19 165.82, -0.06 118.7, 0 32 M0 210.76 C1.11 144.59, 2.01 77.55, 0 32 M0 32 C1.76 8.75, 11.67 1.55, 32 0 M0 32 C-1.16 11.95, 9.16 -0.31, 32 0" stroke="#f08c00" stroke-width="1" fill="none"></path></g><g transform="translate(892.013680533819 1175.528052798842) rotate(0 76.60991668701172 12.5)"><text x="0" y="0" font-family="Virgil, Segoe UI Emoji" font-size="20px" fill="#f08c00" text-anchor="start" style="white-space: pre;" direction="ltr" dominant-baseline="text-before-edge">MovieRepository</text></g><g stroke-linecap="round" transform="translate(1064.3163923245247 1163.439288659683) rotate(0 94.17354693014278 121.3792382655173)"><path d="M32 0 M32 0 C57.25 -0.37, 82.78 0.68, 156.35 0 M32 0 C58.57 -1.15, 86.15 0.14, 156.35 0 M156.35 0 C176.43 1.61, 189.24 10.8, 188.35 32 M156.35 0 C179.93 -0.6, 186.11 10.66, 188.35 32 M188.35 32 C189.66 72.54, 189.69 110.32, 188.35 210.76 M188.35 32 C189.38 71.12, 190.51 109, 188.35 210.76 M188.35 210.76 C187.09 230.42, 179.36 242.01, 156.35 242.76 M188.35 210.76 C186.55 230.23, 179.9 243.1, 156.35 242.76 M156.35 242.76 C114 244.36, 71.9 243.3, 32 242.76 M156.35 242.76 C127.63 241.37, 98.01 241.93, 32 242.76 M32 242.76 C9.86 244.11, 0.96 233.55, 0 210.76 M32 242.76 C11.01 243.49, -0.31 231.96, 0 210.76 M0 210.76 C0.52 139.08, -0.83 72.54, 0 32 M0 210.76 C-1.62 151.8, -0.61 91.7, 0 32 M0 32 C-0.74 8.93, 12.59 1.06, 32 0 M0 32 C1.94 9.93, 12.4 0.89, 32 0" stroke="#f08c00" stroke-width="1" fill="none"></path></g><g transform="translate(1083.8486835396652 1173.9030160963653) rotate(0 82.53990936279297 12.5)"><text x="0" y="0" font-family="Virgil, Segoe UI Emoji" font-size="20px" fill="#f08c00" text-anchor="start" style="white-space: pre;" direction="ltr" dominant-baseline="text-before-edge">PersonRepository</text></g><g stroke-linecap="round" transform="translate(10 248.0703973204981) rotate(0 44.168896572728926 25.029041391213042)"><path d="M12.51 0 M12.51 0 C30.85 -1.73, 48.19 1.29, 75.82 0 M12.51 0 C30.98 0.78, 51.07 0.8, 75.82 0 M75.82 0 C84.73 -2, 87.96 3.85, 88.34 12.51 M75.82 0 C86.3 -1.46, 87.28 5.63, 88.34 12.51 M88.34 12.51 C86.99 21.01, 88.11 27.78, 88.34 37.54 M88.34 12.51 C87.43 18.17, 88.62 22.83, 88.34 37.54 M88.34 37.54 C89.24 44.37, 82.59 49.17, 75.82 50.06 M88.34 37.54 C89.97 46.07, 84.4 50.15, 75.82 50.06 M75.82 50.06 C60.72 50.74, 46.51 48.98, 12.51 50.06 M75.82 50.06 C60.05 50.35, 45.12 51.09, 12.51 50.06 M12.51 50.06 C2.29 49.08, -1.79 44.61, 0 37.54 M12.51 50.06 C5.7 51.13, 0.26 45.32, 0 37.54 M0 37.54 C0.49 31.89, -1.53 26.55, 0 12.51 M0 37.54 C-0.02 27.91, 0.3 19.7, 0 12.51 M0 12.51 C1.91 5.21, 3.2 -0.29, 12.51 0 M0 12.51 C1.46 6.12, 6.22 1.51, 12.51 0" stroke="#f08c00" stroke-width="1" fill="none"></path></g><g transform="translate(27.11892403854921 260.5994387117112) rotate(0 27.049972534179688 12.5)"><text x="27.049972534179688" y="0" font-family="Virgil, Segoe UI Emoji" font-size="20px" fill="#f08c00" text-anchor="middle" style="white-space: pre;" direction="ltr" dominant-baseline="text-before-edge">Client</text></g><g stroke-linecap="round"><g transform="translate(103.24544832020553 279.3302697622038) rotate(0 87.46235668190548 0.000137439831746633)"><path d="M-1.2 -0.82 C27.86 -0.86, 145.71 -0.09, 174.87 -0.15 M0.37 1.36 C29.22 1.51, 144.61 1.61, 173.89 1.31" stroke="#f08c00" stroke-width="1" fill="none"></path></g><g transform="translate(103.24544832020553 279.3302697622038) rotate(0 87.46235668190548 0.000137439831746633)"><path d="M144.37 11.59 C155.15 6.49, 163.13 4.4, 175.04 -0.39 M146.19 10.92 C154.93 7.51, 166.44 4.35, 173.99 1.36" stroke="#f08c00" stroke-width="1" fill="none"></path></g><g transform="translate(103.24544832020553 279.3302697622038) rotate(0 87.46235668190548 0.000137439831746633)"><path d="M144.3 -8.93 C155.12 -6.99, 163.13 -2.03, 175.04 -0.39 M146.11 -9.6 C154.95 -5.71, 166.49 -1.57, 173.99 1.36" stroke="#f08c00" stroke-width="1" fill="none"></path></g></g><mask></mask><g transform="translate(133.1742817036319 241.59002349900203) rotate(0 41.809959411621094 12.5)"><text x="0" y="0" font-family="Virgil, Segoe UI Emoji" font-size="20px" fill="#1e1e1e" text-anchor="start" style="white-space: pre;" direction="ltr" dominant-baseline="text-before-edge">HTTP(S)</text></g><g stroke-linecap="round"><g transform="translate(975.202776386409 220.3994895777164) rotate(0 144.28506213758112 -2.944593104848593)"><path d="M0.93 0.49 C49.13 -0.6, 240.73 -4.97, 288.67 -6.09 M-0.04 -0.3 C48.06 -1.24, 239.8 -3.86, 287.77 -4.66" stroke="#1971c2" stroke-width="1" fill="none"></path></g><g transform="translate(975.202776386409 220.3994895777164) rotate(0 144.28506213758112 -2.944593104848593)"><path d="M260.55 6.18 C266.5 3.06, 273.44 -1.37, 288.89 -6.58 M259.02 5.12 C267.93 2.29, 275.1 0.35, 286.92 -4.28" stroke="#1971c2" stroke-width="1" fill="none"></path></g><g transform="translate(975.202776386409 220.3994895777164) rotate(0 144.28506213758112 -2.944593104848593)"><path d="M260.24 -14.34 C266.35 -12.24, 273.37 -11.43, 288.89 -6.58 M258.71 -15.39 C267.69 -12.3, 274.94 -8.32, 286.92 -4.28" stroke="#1971c2" stroke-width="1" fill="none"></path></g></g><mask></mask><g transform="translate(1043.9099488328761 193.89815163407906) rotate(0 2.7099990844726562 12.5)"><text x="0" y="0" font-family="Virgil, Segoe UI Emoji" font-size="20px" fill="#1971c2" text-anchor="start" style="white-space: pre;" direction="ltr" dominant-baseline="text-before-edge">1</text></g><g stroke-linecap="round" transform="translate(1014.4640177843903 244.93776545145465) rotate(0 72.63329658626532 37.78894484555698)"><path d="M18.89 0 M18.89 0 C46.84 0.46, 70.4 -0.86, 126.37 0 M18.89 0 C45.32 -1.86, 72.56 -0.25, 126.37 0 M126.37 0 C138.23 -1.69, 146.07 5.9, 145.27 18.89 M126.37 0 C138.13 -1.89, 145.39 6.37, 145.27 18.89 M145.27 18.89 C143.95 30.7, 145.76 47.37, 145.27 56.68 M145.27 18.89 C146.1 30.96, 144.48 43.23, 145.27 56.68 M145.27 56.68 C147.04 68.05, 138.85 75.78, 126.37 75.58 M145.27 56.68 C146.5 69.91, 138.55 74.55, 126.37 75.58 M126.37 75.58 C97.02 74.43, 67.97 73.72, 18.89 75.58 M126.37 75.58 C87.68 75.05, 50.79 74.81, 18.89 75.58 M18.89 75.58 C5.99 73.76, 0.2 67.96, 0 56.68 M18.89 75.58 C4.56 76.96, 0.86 70.24, 0 56.68 M0 56.68 C-0.61 40.02, -0.76 27.43, 0 18.89 M0 56.68 C0.47 47.37, -0.76 39.92, 0 18.89 M0 18.89 C-0.33 7.43, 6.97 -1.27, 18.89 0 M0 18.89 C-1.86 4.56, 6.21 -0.95, 18.89 0" stroke="#2f9e44" stroke-width="1" fill="none"></path></g><g transform="translate(1038.020762623179 263.58685511549584) rotate(0 50.859954833984375 25)"><text x="0" y="0" font-family="Virgil, Segoe UI Emoji" font-size="20px" fill="#2f9e44" text-anchor="start" style="white-space: pre;" direction="ltr" dominant-baseline="text-before-edge">"interface"</text><text x="0" y="25" font-family="Virgil, Segoe UI Emoji" font-size="20px" fill="#2f9e44" text-anchor="start" style="white-space: pre;" direction="ltr" dominant-baseline="text-before-edge">Service</text></g><g stroke-linecap="round" transform="translate(1048.817604007624 354.3784758483274) rotate(0 88.82855866293261 37.78894484555701)"><path d="M18.89 0 M18.89 0 C66.7 1.74, 116.03 0.49, 158.76 0 M18.89 0 C69.81 0.71, 119.77 1.1, 158.76 0 M158.76 0 C170.92 0.03, 177.02 8.28, 177.66 18.89 M158.76 0 C172.23 1.19, 176.81 7.87, 177.66 18.89 M177.66 18.89 C177.9 32.31, 177.17 47.68, 177.66 56.68 M177.66 18.89 C178.65 28.07, 177.38 37.04, 177.66 56.68 M177.66 56.68 C177.34 70.52, 171.08 76.37, 158.76 75.58 M177.66 56.68 C175.51 67.68, 172.8 75.44, 158.76 75.58 M158.76 75.58 C118.3 77.11, 75.4 76.48, 18.89 75.58 M158.76 75.58 C111.31 76.93, 62.68 75.47, 18.89 75.58 M18.89 75.58 C6.89 76.45, -0.45 70.39, 0 56.68 M18.89 75.58 C4.4 77.14, 0.11 70.32, 0 56.68 M0 56.68 C-1.43 46.53, 1.56 31.49, 0 18.89 M0 56.68 C0.21 47.72, -0.75 39.1, 0 18.89 M0 18.89 C1.44 7.02, 4.45 -0.32, 18.89 0 M0 18.89 C0.2 4.78, 5.51 -2.11, 18.89 0" stroke="#2f9e44" stroke-width="1" fill="none"></path></g><g transform="translate(1084.152721265807 378.4259862045909) rotate(0 56.699951171875 12.5)"><text x="0" y="0" font-family="Virgil, Segoe UI Emoji" font-size="20px" fill="#2f9e44" text-anchor="start" style="white-space: pre;" direction="ltr" dominant-baseline="text-before-edge">Service Jpa</text></g><g stroke-linecap="round"><g transform="translate(983.0550246660054 287.1435999542846) rotate(0 19.630620698990583 -2.9294777933121168)"><path d="M0.15 -0.05 C6.46 -0.89, 31.75 -3.76, 38.43 -4.9 M-1.24 -1.12 C5.41 -2.29, 33.84 -5.69, 40.71 -6.52" stroke="#2f9e44" stroke-width="1" fill="none"></path></g><g transform="translate(983.0550246660054 287.1435999542846) rotate(0 19.630620698990583 -2.9294777933121168)"><path d="M22.93 1.09 C30.7 0.93, 33.55 -5.07, 41.89 -7.75 M23.1 3.18 C29.46 -1.45, 35.02 -3.52, 40.05 -6.86" stroke="#2f9e44" stroke-width="1" fill="none"></path></g><g transform="translate(983.0550246660054 287.1435999542846) rotate(0 19.630620698990583 -2.9294777933121168)"><path d="M21.3 -12.39 C29.65 -7.89, 33.06 -9.24, 41.89 -7.75 M21.48 -10.3 C28.37 -10.29, 34.49 -7.74, 40.05 -6.86" stroke="#2f9e44" stroke-width="1" fill="none"></path></g></g><mask></mask><g stroke-linecap="round"><g transform="translate(1225.4931902985395 389.2228275890359) rotate(0 43.18736553777933 -64.7810483066691)"><path d="M0.86 0.43 C15.18 -21.21, 71 -107.95, 85.27 -129.75 M-0.14 -0.38 C14.58 -21.85, 73.08 -106.8, 87.4 -128.32" stroke="#2f9e44" stroke-width="1" fill="none"></path></g><g transform="translate(1225.4931902985395 389.2228275890359) rotate(0 43.18736553777933 -64.7810483066691)"><path d="M80.78 -101.08 C81.53 -106.31, 82.35 -114.38, 85.56 -126.81 M80.12 -98.7 C82.17 -106.47, 83.46 -113.31, 87.98 -128.59" stroke="#2f9e44" stroke-width="1" fill="none"></path></g><g transform="translate(1225.4931902985395 389.2228275890359) rotate(0 43.18736553777933 -64.7810483066691)"><path d="M63.8 -112.6 C68.76 -115.1, 73.79 -120.31, 85.56 -126.81 M63.14 -110.22 C69.29 -115.3, 74.78 -119.28, 87.98 -128.59" stroke="#2f9e44" stroke-width="1" fill="none"></path></g></g><mask></mask><g stroke-linecap="round"><g transform="translate(1103.7833419647977 351.92464826095363) rotate(0 0 -11.778372419394373)"><path d="M0.57 -0.94 C0.43 -4.92, -0.94 -20.44, -1.01 -24.13 M-0.59 1.17 C-0.35 -2.62, 1.16 -18.51, 1.17 -22.9" stroke="#2f9e44" stroke-width="1" fill="none"></path></g></g><mask></mask><g stroke-linecap="round" transform="translate(1330.5170110381396 73.16983433528671) rotate(0 61.34568968434576 34.844351740708376)"><path d="M17.42 0 M17.42 0 C36.74 1.37, 56 2.02, 105.27 0 M17.42 0 C40.13 0.81, 63.31 -0.01, 105.27 0 M105.27 0 C116.79 -0.66, 123.6 6.9, 122.69 17.42 M105.27 0 C116.4 -0.71, 121.85 5.42, 122.69 17.42 M122.69 17.42 C123.48 30.5, 122.1 45.49, 122.69 52.27 M122.69 17.42 C123.21 28.99, 121.87 39.39, 122.69 52.27 M122.69 52.27 C124.58 62.6, 117.82 69.93, 105.27 69.69 M122.69 52.27 C123.6 63.18, 115.05 68.17, 105.27 69.69 M105.27 69.69 C85.25 67.48, 64.36 67.19, 17.42 69.69 M105.27 69.69 C77.85 68.38, 51.7 69.47, 17.42 69.69 M17.42 69.69 C6.87 71.5, 0 64.77, 0 52.27 M17.42 69.69 C5.41 69.83, 1.89 65.06, 0 52.27 M0 52.27 C-1.27 44.9, 1.75 35.75, 0 17.42 M0 52.27 C0.66 42.19, 0.11 31.7, 0 17.42 M0 17.42 C1.77 4.92, 7.23 1.93, 17.42 0 M0 17.42 C-2.09 6.02, 5.1 -1.91, 17.42 0" stroke="#1e1e1e" stroke-width="1" fill="none"></path></g><g transform="translate(1354.0737558769283 90.83739296437827) rotate(0 28.319969177246094 25.000000000000014)"><text x="0" y="0" font-family="Virgil, Segoe UI Emoji" font-size="20px" fill="#1e1e1e" text-anchor="start" style="white-space: pre;" direction="ltr" dominant-baseline="text-before-edge">entity</text><text x="0" y="25" font-family="Virgil, Segoe UI Emoji" font-size="20px" fill="#1e1e1e" text-anchor="start" style="white-space: pre;" direction="ltr" dominant-baseline="text-before-edge">Movie</text></g><g stroke-linecap="round" transform="translate(770.0627900819569 81.02208261488292) rotate(0 163.42491731909706 32.39052415333454)"><path d="M16.2 0 M16.2 0 C127.95 -1.05, 242.42 1.18, 310.65 0 M16.2 0 C104.55 -0.91, 194.12 -1.32, 310.65 0 M310.65 0 C322.03 1.32, 326.65 6.19, 326.85 16.2 M310.65 0 C319.16 -0.85, 325.28 7.42, 326.85 16.2 M326.85 16.2 C325.64 24.58, 327.24 33.39, 326.85 48.59 M326.85 16.2 C328.03 28.07, 326.48 39.21, 326.85 48.59 M326.85 48.59 C328.22 59.28, 321.29 64.87, 310.65 64.78 M326.85 48.59 C327.57 58.79, 321.79 63.43, 310.65 64.78 M310.65 64.78 C209.62 63.08, 107.08 62.76, 16.2 64.78 M310.65 64.78 C245.8 62.43, 180.91 62.26, 16.2 64.78 M16.2 64.78 C3.42 66.76, -0.31 60.64, 0 48.59 M16.2 64.78 C4.4 64.87, 2.3 61.66, 0 48.59 M0 48.59 C-0.91 36.05, -0.1 26.22, 0 16.2 M0 48.59 C0.02 38.7, 0.12 29.47, 0 16.2 M0 16.2 C-1.31 4.63, 4.87 0.06, 16.2 0 M0 16.2 C-1.24 6.14, 7.36 0.39, 16.2 0" stroke="#1e1e1e" stroke-width="1" fill="none"></path></g><g transform="translate(788.711879745998 95.74504813912594) rotate(0 133.5798797607422 25.000000000000014)"><text x="0" y="0" font-family="Virgil, Segoe UI Emoji" font-size="20px" fill="#1e1e1e" text-anchor="start" style="white-space: pre;" direction="ltr" dominant-baseline="text-before-edge">dto</text><text x="0" y="25" font-family="Virgil, Segoe UI Emoji" font-size="20px" fill="#1e1e1e" text-anchor="start" style="white-space: pre;" direction="ltr" dominant-baseline="text-before-edge">MovieSimple, MovieDetail, ...</text></g><g stroke-linecap="round"><g transform="translate(1110.6540592094443 106.54188952357077) rotate(0 108.94994487939806 0)"><path d="M0.64 -0.43 C36.6 -0.49, 180.54 0.47, 216.76 0.49 M-0.48 -1.7 C35.73 -2.2, 182.58 -1.8, 218.87 -1.37" stroke="#2f9e44" stroke-width="1" fill="none"></path></g></g><mask></mask><g transform="translate(1159.7306109569208 73.16983433528671) rotate(0 32.629966735839844 12.5)"><text x="0" y="0" font-family="Virgil, Segoe UI Emoji" font-size="20px" fill="#2f9e44" text-anchor="start" style="white-space: pre;" direction="ltr" dominant-baseline="text-before-edge">mapper</text></g><g stroke-linecap="round" transform="translate(495.26334683650884 247.14830083140657) rotate(0 59.01441326859137 41.00352090739784)"><path d="M20.5 0 M20.5 0 C47.06 0.54, 69.25 -1.12, 97.53 0 M20.5 0 C42.21 0.9, 63.86 0.02, 97.53 0 M97.53 0 C111.35 -1.82, 116.49 8.52, 118.03 20.5 M97.53 0 C110.29 0.26, 116.26 8.54, 118.03 20.5 M118.03 20.5 C118.32 32.61, 119.26 48.15, 118.03 61.51 M118.03 20.5 C118.06 30.79, 118.42 42.97, 118.03 61.51 M118.03 61.51 C118.26 73.85, 110.59 80.8, 97.53 82.01 M118.03 61.51 C118.61 74.6, 111.36 83.86, 97.53 82.01 M97.53 82.01 C81.63 81.2, 66.12 79.67, 20.5 82.01 M97.53 82.01 C77.35 82.71, 59.73 81.13, 20.5 82.01 M20.5 82.01 C5.44 82.16, 0.5 75.34, 0 61.51 M20.5 82.01 C8.02 80.93, -0.51 75.7, 0 61.51 M0 61.51 C-1.02 47.91, -0.12 30.59, 0 20.5 M0 61.51 C-1.03 52, -1.17 42.79, 0 20.5 M0 20.5 C0.12 8.79, 6.2 1.08, 20.5 0 M0 20.5 C-0.16 8.34, 9.12 -1.34, 20.5 0" stroke="#1971c2" stroke-width="1" fill="none"></path></g><g transform="translate(509.0589239642315 258.64461510450883) rotate(0 44.50996398925781 12.5)"><text x="0" y="0" font-family="Virgil, Segoe UI Emoji" font-size="20px" fill="#1971c2" text-anchor="start" style="white-space: pre;" direction="ltr" dominant-baseline="text-before-edge">Validator</text></g><g stroke-linecap="round"><g transform="translate(616.3578571798521 281.6711114574145) rotate(0 46.75167804394897 -0.7833548548908027)"><path d="M-0.1 -1 C15.26 -1.19, 77.59 -1.69, 93.14 -1.95 M-1.61 1.09 C13.48 1.15, 76.35 -0.13, 92 -0.61" stroke="#f08c00" stroke-width="1" fill="none"></path></g><g transform="translate(616.3578571798521 281.6711114574145) rotate(0 46.75167804394897 -0.7833548548908027)"><path d="M62.4 9.72 C74.08 5.7, 83.61 3.77, 90.32 -2.37 M64.94 10.51 C73.73 7.14, 83.7 2.71, 92.93 -0.14" stroke="#f08c00" stroke-width="1" fill="none"></path></g><g transform="translate(616.3578571798521 281.6711114574145) rotate(0 46.75167804394897 -0.7833548548908027)"><path d="M61.9 -10.79 C73.63 -7.05, 83.35 -1.21, 90.32 -2.37 M64.44 -10 C73.42 -6.43, 83.56 -3.92, 92.93 -0.14" stroke="#f08c00" stroke-width="1" fill="none"></path></g></g><mask></mask><g stroke-linecap="round"><g transform="translate(492.1976630303483 309.99481885769865) rotate(0 -51.350203753189874 0.38321047577011313)"><path d="M0.25 0.16 C-16.86 0.32, -84.39 -0.01, -101.7 0.23 M-1.08 -0.8 C-18.34 -0.41, -85.44 1.4, -102.12 1.49" stroke="#e03131" stroke-width="1" fill="none"></path></g><g transform="translate(492.1976630303483 309.99481885769865) rotate(0 -51.350203753189874 0.38321047577011313)"><path d="M-73.85 -7.6 C-85.7 -6.57, -94.02 -1.42, -103.25 2.54 M-73.47 -9.26 C-82.71 -5.84, -92.77 -2.75, -101.88 2.24" stroke="#e03131" stroke-width="1" fill="none"></path></g><g transform="translate(492.1976630303483 309.99481885769865) rotate(0 -51.350203753189874 0.38321047577011313)"><path d="M-73.48 12.92 C-85.34 6.16, -93.8 3.52, -103.25 2.54 M-73.11 11.25 C-82.35 8.14, -92.52 4.7, -101.88 2.24" stroke="#e03131" stroke-width="1" fill="none"></path></g></g><mask></mask><g transform="translate(373.4024155416255 326.0896588400418) rotate(0 85.80992126464844 12.5)"><text x="0" y="0" font-family="Virgil, Segoe UI Emoji" font-size="20px" fill="#e03131" text-anchor="start" style="white-space: pre;" direction="ltr" dominant-baseline="text-before-edge">NotValidException</text></g><g stroke-linecap="round" transform="translate(278.3662175506472 237.18482846138465) rotate(0 53.26625613204021 66.29541230822275)"><path d="M26.63 0 M26.63 0 C42.89 -1.18, 58.67 -0.75, 79.9 0 M26.63 0 C39.81 0.38, 52.44 -1.19, 79.9 0 M79.9 0 C95.81 0.69, 108.08 8.97, 106.53 26.63 M79.9 0 C99.15 -1.85, 107.75 9.35, 106.53 26.63 M106.53 26.63 C104.54 45.68, 107.1 63.94, 106.53 105.96 M106.53 26.63 C107.73 53.28, 107.15 79.61, 106.53 105.96 M106.53 105.96 C105.59 125.44, 97.08 131.79, 79.9 132.59 M106.53 105.96 C108.12 125.24, 98.68 133.72, 79.9 132.59 M79.9 132.59 C62.64 132.66, 40.81 131.58, 26.63 132.59 M79.9 132.59 C67.47 131.93, 54.82 133.36, 26.63 132.59 M26.63 132.59 C10.79 133.07, 1.45 123.03, 0 105.96 M26.63 132.59 C9.14 132.89, 0.38 121.95, 0 105.96 M0 105.96 C-2.07 80.16, -1.75 55.49, 0 26.63 M0 105.96 C0.94 75.05, 0.05 43.48, 0 26.63 M0 26.63 C0.05 7.82, 6.97 -1.32, 26.63 0 M0 26.63 C0.85 7.05, 11.07 2.08, 26.63 0" stroke="#1971c2" stroke-width="1" fill="none"></path></g><g transform="translate(294.4610575329903 254.81251034680804) rotate(0 47.169952392578125 25)"><text x="0" y="0" font-family="Virgil, Segoe UI Emoji" font-size="20px" fill="#1971c2" text-anchor="start" style="white-space: pre;" direction="ltr" dominant-baseline="text-before-edge">Controller</text><text x="0" y="25" font-family="Virgil, Segoe UI Emoji" font-size="20px" fill="#1971c2" text-anchor="start" style="white-space: pre;" direction="ltr" dominant-baseline="text-before-edge">Advice</text></g><g stroke-linecap="round"><g transform="translate(387.9644136208883 273.97303413531176) rotate(0 55.18230851089055 0)"><path d="M0.6 1.07 C18.71 1.06, 91.19 0.43, 109.66 0.07 M-0.55 0.58 C17.87 0.77, 93.38 1.8, 112.01 1.64" stroke="#f08c00" stroke-width="1" fill="none"></path></g><g transform="translate(387.9644136208883 273.97303413531176) rotate(0 55.18230851089055 0)"><path d="M85.55 10.61 C94.64 9.55, 103.44 2.16, 110.18 -0.19 M82.78 12.36 C89.1 9.9, 96.05 7.82, 111.17 2.16" stroke="#f08c00" stroke-width="1" fill="none"></path></g><g transform="translate(387.9644136208883 273.97303413531176) rotate(0 55.18230851089055 0)"><path d="M85.63 -9.91 C94.72 -3.14, 103.48 -2.7, 110.18 -0.19 M82.86 -8.16 C89.24 -6.37, 96.17 -4.21, 111.17 2.16" stroke="#f08c00" stroke-width="1" fill="none"></path></g></g><mask></mask><g stroke-linecap="round"><g transform="translate(278.3662175506472 302.3306093422972) rotate(0 -87.75519895134686 0.38321047577011313)"><path d="M-0.27 -0.36 C-29.59 -0.15, -146.3 -0.29, -175.6 0.07 M1.79 -1.6 C-27.73 -1.14, -146.77 0.98, -176.59 1.24" stroke="#e03131" stroke-width="1" fill="none"></path></g><g transform="translate(278.3662175506472 302.3306093422972) rotate(0 -87.75519895134686 0.38321047577011313)"><path d="M-149.15 -9.56 C-159.02 -6.91, -165.35 -1.55, -176.42 0.76 M-148.26 -10.28 C-157.47 -6.4, -167.77 -2.19, -175.71 1.82" stroke="#e03131" stroke-width="1" fill="none"></path></g><g transform="translate(278.3662175506472 302.3306093422972) rotate(0 -87.75519895134686 0.38321047577011313)"><path d="M-148.86 10.96 C-158.62 6.88, -165.04 5.49, -176.42 0.76 M-147.97 10.24 C-157.23 7.13, -167.63 4.35, -175.71 1.82" stroke="#e03131" stroke-width="1" fill="none"></path></g></g><mask></mask><g stroke-linecap="round"><g transform="translate(702.9634247038888 359.81218070780824) rotate(0 -158.2659264930404 0)"><path d="M-0.15 1.19 C-52.94 1.21, -263.15 1.19, -315.88 1.15 M-1.69 0.77 C-54.66 1, -263.89 -0.1, -316.49 -0.36" stroke="#e03131" stroke-width="1" fill="none"></path></g><g transform="translate(702.9634247038888 359.81218070780824) rotate(0 -158.2659264930404 0)"><path d="M-286.26 -9.4 C-296.78 -6.76, -307.6 -3.12, -315.21 0.78 M-287.62 -10.89 C-297.08 -7.95, -306.81 -3.04, -316.01 -0.67" stroke="#e03131" stroke-width="1" fill="none"></path></g><g transform="translate(702.9634247038888 359.81218070780824) rotate(0 -158.2659264930404 0)"><path d="M-286.36 11.12 C-297.03 6.1, -307.81 2.07, -315.21 0.78 M-287.73 9.63 C-297.33 5.76, -307.02 3.87, -316.01 -0.67" stroke="#e03131" stroke-width="1" fill="none"></path></g></g><mask></mask><g transform="translate(454.64303640488106 369.77565307783016) rotate(0 76.72992706298828 12.5)"><text x="0" y="0" font-family="Virgil, Segoe UI Emoji" font-size="20px" fill="#e03131" text-anchor="start" style="white-space: pre;" direction="ltr" dominant-baseline="text-before-edge">other Exception</text></g><g transform="translate(141.94328817650103 314.59334456693955) rotate(0 63.41993713378906 25)"><text x="0" y="0" font-family="Virgil, Segoe UI Emoji" font-size="20px" fill="#e03131" text-anchor="start" style="white-space: pre;" direction="ltr" dominant-baseline="text-before-edge">error status</text><text x="0" y="25" font-family="Virgil, Segoe UI Emoji" font-size="20px" fill="#e03131" text-anchor="start" style="white-space: pre;" direction="ltr" dominant-baseline="text-before-edge">+ json error</text></g><g stroke-linecap="round" transform="translate(369.57031078392475 96.92979432953771) rotate(0 59.01441326859131 58.247992317051214)"><path d="M29.12 0 M29.12 0 C41.07 -0.98, 51.77 -2.35, 88.9 0 M29.12 0 C41.96 -0.84, 52.9 -0.29, 88.9 0 M88.9 0 C107.1 0.58, 119.99 8.76, 118.03 29.12 M88.9 0 C106.5 -0.4, 117.1 9.04, 118.03 29.12 M118.03 29.12 C116.62 46.77, 117 64.57, 118.03 87.37 M118.03 29.12 C119.41 49.31, 117.77 70.03, 118.03 87.37 M118.03 87.37 C116.19 107.07, 110.16 114.67, 88.9 116.5 M118.03 87.37 C118.97 105.68, 109.16 118.43, 88.9 116.5 M88.9 116.5 C66.76 115.54, 46.52 116.01, 29.12 116.5 M88.9 116.5 C68.73 117.46, 46.71 117.25, 29.12 116.5 M29.12 116.5 C11.45 114.73, 0.71 107.67, 0 87.37 M29.12 116.5 C7.63 114.5, 0.2 108.2, 0 87.37 M0 87.37 C1.4 70.46, 2.24 54.43, 0 29.12 M0 87.37 C-0.13 67.16, -0.65 46.49, 0 29.12 M0 29.12 C-1.28 11.17, 10.87 -1.83, 29.12 0 M0 29.12 C2.06 10.92, 10.48 -0.85, 29.12 0" stroke="#1971c2" stroke-width="1" fill="none"></path></g><g transform="translate(385.66515076626786 116.09031811804147) rotate(0 47.169952392578125 37.5)"><text x="0" y="0" font-family="Virgil, Segoe UI Emoji" font-size="20px" fill="#1971c2" text-anchor="start" style="white-space: pre;" direction="ltr" dominant-baseline="text-before-edge">Custom</text><text x="0" y="25" font-family="Virgil, Segoe UI Emoji" font-size="20px" fill="#1971c2" text-anchor="start" style="white-space: pre;" direction="ltr" dominant-baseline="text-before-edge">Controller</text><text x="0" y="50" font-family="Virgil, Segoe UI Emoji" font-size="20px" fill="#1971c2" text-anchor="start" style="white-space: pre;" direction="ltr" dominant-baseline="text-before-edge">Advice</text></g><g stroke-linecap="round"><g transform="translate(423.2197773917351 221.85640943058172) rotate(0 0.3832104757700563 21.076576167354062)"><path d="M-0.9 -0.71 C-0.81 6.13, -0.43 34.12, -0.35 41.18" stroke="#1971c2" stroke-width="1.5" fill="none" stroke-dasharray="1.5 7"></path></g><g transform="translate(423.2197773917351 221.85640943058172) rotate(0 0.3832104757700563 21.076576167354062)"><path d="M-9 19.61 C-7.73 24.06, -5.2 30.44, 1.41 39.6" stroke="#1971c2" stroke-width="1.5" fill="none" stroke-dasharray="1.5 5"></path></g><g transform="translate(423.2197773917351 221.85640943058172) rotate(0 0.3832104757700563 21.076576167354062)"><path d="M5.42 19.43 C3.45 23.81, 2.73 30.23, 1.41 39.6" stroke="#1971c2" stroke-width="1.5" fill="none" stroke-dasharray="1.5 5"></path></g></g><mask></mask><g stroke-linecap="round" transform="translate(692.5464349071415 1511.3681646940058) rotate(0 141.66577989519863 47.40038649261339)"><path d="M23.7 0 M23.7 0 C80.34 0.75, 134.17 1.09, 259.63 0 M23.7 0 C83.47 1.08, 144.25 0.47, 259.63 0 M259.63 0 C275.76 -0.43, 282.04 6.12, 283.33 23.7 M259.63 0 C275.21 -1.57, 284.12 7.77, 283.33 23.7 M283.33 23.7 C281.43 36.99, 283.12 47.56, 283.33 71.1 M283.33 23.7 C282.82 40.25, 284.28 56.87, 283.33 71.1 M283.33 71.1 C284.65 87.48, 276.77 94.05, 259.63 94.8 M283.33 71.1 C281.66 85.01, 275.45 93.52, 259.63 94.8 M259.63 94.8 C181.91 95.35, 103.84 95.43, 23.7 94.8 M259.63 94.8 C167.29 94.34, 76.2 95.09, 23.7 94.8 M23.7 94.8 C9.37 95.29, 1.33 86.85, 0 71.1 M23.7 94.8 C6.75 96.71, 2.28 87.04, 0 71.1 M0 71.1 C-0.77 55.8, 0.05 40.49, 0 23.7 M0 71.1 C-0.21 57.3, 0.16 44.03, 0 23.7 M0 23.7 C0.42 6.29, 8.75 1.31, 23.7 0 M0 23.7 C0.06 7.06, 8.2 -0.03, 23.7 0" stroke="#1971c2" stroke-width="1" fill="none"></path></g><g transform="translate(765.8472766417742 1530.8619384189901) rotate(0 61.269935607910156 12.5)"><text x="0" y="0" font-family="Virgil, Segoe UI Emoji" font-size="20px" fill="#1971c2" text-anchor="start" style="white-space: pre;" direction="ltr" dominant-baseline="text-before-edge">Publisher&lt;T&gt;</text></g><g stroke-linecap="round" transform="translate(567.681979828589 1704.7141159313223) rotate(0 141.66577989519865 47.40038649261339)"><path d="M23.7 0 M23.7 0 C111.51 -1.97, 202.24 -1.38, 259.63 0 M23.7 0 C84.42 0.08, 145.74 -0.09, 259.63 0 M259.63 0 C276.92 -1.52, 284.51 6.76, 283.33 23.7 M259.63 0 C273.76 1.8, 283.15 6.03, 283.33 23.7 M283.33 23.7 C281.67 41.79, 282.1 55.25, 283.33 71.1 M283.33 23.7 C283.92 33.37, 282.69 43.12, 283.33 71.1 M283.33 71.1 C284.05 85.17, 277.41 93.26, 259.63 94.8 M283.33 71.1 C284.64 87.29, 275.98 95.62, 259.63 94.8 M259.63 94.8 C204.06 95.99, 146.44 94.29, 23.7 94.8 M259.63 94.8 C180.33 92.53, 100.98 92.88, 23.7 94.8 M23.7 94.8 C8.01 96.62, 1.72 85.87, 0 71.1 M23.7 94.8 C7.86 95.21, 0.92 84.8, 0 71.1 M0 71.1 C0.36 53.67, -2.1 35, 0 23.7 M0 71.1 C-1.03 55.67, 0.04 38.24, 0 23.7 M0 23.7 C-1.4 8.32, 6.26 1.24, 23.7 0 M0 23.7 C-0.15 5.77, 8.34 1.28, 23.7 0" stroke="#1971c2" stroke-width="1" fill="none"></path></g><g stroke-linecap="round" transform="translate(892.7344180824128 1699.5906974649752) rotate(0 141.66577989519863 47.40038649261339)"><path d="M23.7 0 M23.7 0 C103.04 0.19, 182.25 0.88, 259.63 0 M23.7 0 C95.37 -1.72, 168.04 -1.37, 259.63 0 M259.63 0 C273.61 1.52, 283.8 7.32, 283.33 23.7 M259.63 0 C275.98 0.45, 281.04 7.39, 283.33 23.7 M283.33 23.7 C282.61 41.58, 284.76 55.47, 283.33 71.1 M283.33 23.7 C284.05 34.54, 282.51 45.7, 283.33 71.1 M283.33 71.1 C284.45 86.25, 274.51 93.91, 259.63 94.8 M283.33 71.1 C284.82 88.56, 273.99 95.11, 259.63 94.8 M259.63 94.8 C170.65 93.78, 84.09 95.79, 23.7 94.8 M259.63 94.8 C173.27 93.9, 86.9 93.8, 23.7 94.8 M23.7 94.8 C7.91 93.95, -1.31 85.88, 0 71.1 M23.7 94.8 C6.44 96.71, 0.73 86.35, 0 71.1 M0 71.1 C0.57 58.88, 1.04 45.92, 0 23.7 M0 71.1 C-0.51 56.07, -0.7 40.25, 0 23.7 M0 23.7 C-1.38 9.24, 9.65 -0.79, 23.7 0 M0 23.7 C0.02 8.87, 10.01 0.7, 23.7 0" stroke="#1971c2" stroke-width="1" fill="none"></path></g><g transform="translate(623.3881832328466 1721.9432603443342) rotate(0 38.60997009277344 12.5)"><text x="0" y="0" font-family="Virgil, Segoe UI Emoji" font-size="20px" fill="#1971c2" text-anchor="start" style="white-space: pre;" direction="ltr" dominant-baseline="text-before-edge">Flux&lt;T&gt;</text></g><g transform="translate(947.3020840497041 1731.051559840063) rotate(0 42.34996795654297 12.5)"><text x="0" y="0" font-family="Virgil, Segoe UI Emoji" font-size="20px" fill="#1971c2" text-anchor="start" style="white-space: pre;" direction="ltr" dominant-baseline="text-before-edge">Mono&lt;T&gt;</text></g><g stroke-linecap="round"><g transform="translate(717.3175217825504 1701.4495864789442) rotate(0 0.5692687184830731 -22.486114380080608)"><path d="M-0.87 0.1 C-0.77 -7.41, -0.15 -38.34, 0.04 -45.72 M0.88 -0.89 C1.38 -8.21, 1.87 -37.04, 2.18 -44.58" stroke="#1971c2" stroke-width="1" fill="none"></path></g></g><mask></mask><g stroke-linecap="round"><g transform="translate(720.1638653749658 1657.0466264372658) rotate(0 149.14840424256008 0)"><path d="M0.62 0.93 C50.1 0.99, 247.66 0.98, 297.39 0.63 M-0.52 0.38 C49.3 0.06, 249.77 -1.03, 299.62 -1.16" stroke="#1971c2" stroke-width="1" fill="none"></path></g></g><mask></mask><g stroke-linecap="round"><g transform="translate(1016.7528677046367 1655.9080890002997) rotate(0 0.5692687184830447 21.347576943114518)"><path d="M-0.6 0.45 C-0.35 7.35, 2.02 35.25, 2.21 42.19 M1.28 -0.35 C1.41 6.63, 2.13 36.22, 1.82 43.47" stroke="#1971c2" stroke-width="1" fill="none"></path></g></g><mask></mask><g stroke-linecap="round"><g transform="translate(841.4181024118562 1657.0466264372658) rotate(0 -0.28463435924152236 -13.377814884351778)"><path d="M-0.39 -0.43 C-0.23 -4.56, 0.17 -21.4, 0.22 -25.91 M1.61 -1.7 C1.74 -6.07, 0.06 -23.45, -0.31 -27.6" stroke="#1971c2" stroke-width="1" fill="none"></path></g></g><mask></mask><g stroke-linecap="round"><g transform="translate(830.0327280421951 1628.0139217946303) rotate(0 11.1007400104196 0)"><path d="M-0.07 -1.19 C3.61 -1.3, 18.7 -1.24, 22.52 -0.86 M-1.56 0.81 C1.94 0.83, 17.74 0.47, 21.74 0.22" stroke="#1971c2" stroke-width="1" fill="none"></path></g></g><mask></mask><g stroke-linecap="round"><g transform="translate(830.0327280421951 1628.583190513113) rotate(0 3.7002466701398475 -9.677568214211874)"><path d="M-0.64 0.4 C0.4 -2.79, 5.43 -16.24, 6.7 -19.48 M1.22 -0.44 C2.61 -3.41, 8.25 -14.55, 9.04 -18" stroke="#1971c2" stroke-width="1" fill="none"></path></g></g><mask></mask><g stroke-linecap="round"><g transform="translate(851.6649393445512 1629.1524592315964) rotate(0 -6.8312246217965935 -9.962202573453396)"><path d="M0.11 0.63 C-2.21 -2.91, -11.37 -17.84, -13.69 -21.11 M-1.3 -0.08 C-3.8 -3.54, -12.43 -16.74, -14.66 -20.2" stroke="#f08c00" stroke-width="1" fill="none"></path></g></g><mask></mask><g transform="translate(614.8491524556008 1761.7920706381478) rotate(0 41.879974365234375 12.5)"><text x="0" y="0" font-family="Virgil, Segoe UI Emoji" font-size="20px" fill="#f08c00" text-anchor="start" style="white-space: pre;" direction="ltr" dominant-baseline="text-before-edge">(n data)</text></g><g transform="translate(951.2869650790857 1766.9154891044955) rotate(0 52.27996826171875 12.5)"><text x="0" y="0" font-family="Virgil, Segoe UI Emoji" font-size="20px" fill="#f08c00" text-anchor="start" style="white-space: pre;" direction="ltr" dominant-baseline="text-before-edge">(0..1 data)</text></g><g stroke-linecap="round" transform="translate(1102.1431754770952 1895.570219481665) rotate(0 124.3852149885472 71.44322416962348)"><path d="M32 0 M32 0 C90.51 -1.14, 149.64 0.26, 216.77 0 M32 0 C71.26 -0.15, 110.8 -0.14, 216.77 0 M216.77 0 C237.55 1.63, 250.65 8.95, 248.77 32 M216.77 0 C237.48 -0.75, 248.19 9.91, 248.77 32 M248.77 32 C246.88 60.53, 249.84 89.98, 248.77 110.89 M248.77 32 C248.99 56.28, 249.34 77.7, 248.77 110.89 M248.77 110.89 C250.45 131.72, 239.02 144.52, 216.77 142.89 M248.77 110.89 C246.48 131.25, 236.01 141.29, 216.77 142.89 M216.77 142.89 C143.57 141.2, 70.29 141.12, 32 142.89 M216.77 142.89 C157.45 142.09, 98.06 141.69, 32 142.89 M32 142.89 C9.8 142.73, 1.28 132.71, 0 110.89 M32 142.89 C11.58 140.6, -0.94 130.63, 0 110.89 M0 110.89 C-0.67 85.28, -0.95 58.64, 0 32 M0 110.89 C0.35 93.38, 0.32 76.23, 0 32 M0 32 C-1.08 9, 12.17 1.54, 32 0 M0 32 C-0.1 12.39, 8.7 -0.35, 32 0" stroke="#f08c00" stroke-width="1" fill="none"></path></g><g transform="translate(1111.2514749728239 1909.2326687252585) rotate(0 78.27992248535156 25)"><text x="0" y="0" font-family="Virgil, Segoe UI Emoji" font-size="20px" fill="#f08c00" text-anchor="start" style="white-space: pre;" direction="ltr" dominant-baseline="text-before-edge">Service Registry</text><text x="0" y="25" font-family="Virgil, Segoe UI Emoji" font-size="20px" fill="#f08c00" text-anchor="start" style="white-space: pre;" direction="ltr" dominant-baseline="text-before-edge">(Eureka Server)</text></g><g stroke-linecap="round" transform="translate(740.0882705218726 1881.9077702380719) rotate(0 102.18373496770815 76.28200827672913)"><path d="M32 0 M32 0 C68.61 0.86, 105.68 -1.71, 172.37 0 M32 0 C78.12 -1.02, 123.79 -0.1, 172.37 0 M172.37 0 C191.76 -0.73, 206.21 9.87, 204.37 32 M172.37 0 C191.46 0.27, 202.92 12.18, 204.37 32 M204.37 32 C203.59 62.84, 203.55 93.15, 204.37 120.56 M204.37 32 C204.22 54.42, 204.41 74.99, 204.37 120.56 M204.37 120.56 C204.82 141.71, 192.14 153.29, 172.37 152.56 M204.37 120.56 C206.64 140.02, 193.58 151.24, 172.37 152.56 M172.37 152.56 C122.23 151.79, 72.79 151.19, 32 152.56 M172.37 152.56 C117.52 152.38, 62.71 151.6, 32 152.56 M32 152.56 C11.08 153.42, -0.65 140.74, 0 120.56 M32 152.56 C12.26 150.34, -1.72 141.24, 0 120.56 M0 120.56 C0.25 84.78, -0.07 53.9, 0 32 M0 120.56 C1.83 96.69, 0.87 74.62, 0 32 M0 32 C-0.57 8.94, 12.03 -1.45, 32 0 M0 32 C-1.73 12.2, 11.06 2.25, 32 0" stroke="#f08c00" stroke-width="1" fill="none"></path></g><g transform="translate(770.2595126014744 1904.678518977394) rotate(0 59.54994201660159 37.5)"><text x="0" y="0" font-family="Virgil, Segoe UI Emoji" font-size="20px" fill="#f08c00" text-anchor="start" style="white-space: pre;" direction="ltr" dominant-baseline="text-before-edge">Service</text><text x="0" y="25" font-family="Virgil, Segoe UI Emoji" font-size="20px" fill="#f08c00" text-anchor="start" style="white-space: pre;" direction="ltr" dominant-baseline="text-before-edge">Registration</text><text x="0" y="50" font-family="Virgil, Segoe UI Emoji" font-size="20px" fill="#f08c00" text-anchor="start" style="white-space: pre;" direction="ltr" dominant-baseline="text-before-edge">Discovery</text></g><g stroke-linecap="round"><g transform="translate(944.263362685997 1945.765137998776) rotate(0 79.09266260380485 0.5245458223814694)"><path d="M0.21 0.8 C26.62 1.15, 133.03 1.5, 159.32 1.43 M-1.14 0.18 C25.11 0.23, 132.49 -0.57, 158.83 -0.35" stroke="#f08c00" stroke-width="1" fill="none"></path></g><g transform="translate(944.263362685997 1945.765137998776) rotate(0 79.09266260380485 0.5245458223814694)"><path d="M131.99 11.38 C142.32 5.16, 151.12 0.52, 160.68 -1.07 M130.12 9.1 C139.45 6.06, 148.52 2.26, 159.37 0.33" stroke="#f08c00" stroke-width="1" fill="none"></path></g><g transform="translate(944.263362685997 1945.765137998776) rotate(0 79.09266260380485 0.5245458223814694)"><path d="M131.97 -9.14 C142.2 -7.68, 151.01 -4.63, 160.68 -1.07 M130.11 -11.42 C139.65 -7.92, 148.71 -5.17, 159.37 0.33" stroke="#f08c00" stroke-width="1" fill="none"></path></g></g><mask></mask><g transform="translate(966.0879517596449 1881.3385015195886) rotate(0 37.81995391845703 25)"><text x="0" y="0" font-family="Virgil, Segoe UI Emoji" font-size="20px" fill="#f08c00" text-anchor="start" style="white-space: pre;" direction="ltr" dominant-baseline="text-before-edge">register</text><text x="0" y="25" font-family="Virgil, Segoe UI Emoji" font-size="20px" fill="#f08c00" text-anchor="start" style="white-space: pre;" direction="ltr" dominant-baseline="text-before-edge">(start)</text></g><g stroke-linecap="round"><g transform="translate(594.9247473086939 1993.4844390607504) rotate(0 73.17961495666543 -0.2186576951439747)"><path d="M-1.06 -0.96 C23.7 -1.17, 122.71 -1.71, 147.41 -1.56 M0.59 1.15 C25.33 1.09, 122.42 0, 146.75 -0.55" stroke="#2f9e44" stroke-width="1" fill="none"></path></g><g transform="translate(594.9247473086939 1993.4844390607504) rotate(0 73.17961495666543 -0.2186576951439747)"><path d="M117.13 11.07 C122.91 8.73, 131.21 6.27, 146.67 0.11 M118.57 10.36 C126.16 7.07, 134.07 4.36, 145.94 -0.99" stroke="#2f9e44" stroke-width="1" fill="none"></path></g><g transform="translate(594.9247473086939 1993.4844390607504) rotate(0 73.17961495666543 -0.2186576951439747)"><path d="M116.8 -9.45 C122.59 -7.53, 130.97 -5.75, 146.67 0.11 M118.24 -10.16 C125.93 -7.9, 133.93 -5.07, 145.94 -0.99" stroke="#2f9e44" stroke-width="1" fill="none"></path></g></g><mask></mask><g transform="translate(610.2950027077363 1965.590271855081) rotate(0 43.55995178222656 12.5)"><text x="0" y="0" font-family="Virgil, Segoe UI Emoji" font-size="20px" fill="#2f9e44" text-anchor="start" style="white-space: pre;" direction="ltr" dominant-baseline="text-before-edge">discovery</text></g><g stroke-linecap="round"><g transform="translate(945.594277894255 1994.6229764977165) rotate(0 78.05829897767745 0.10213014564010336)"><path d="M-0.31 -0.98 C25.86 -0.96, 130.21 0.98, 156.43 1.18 M1.73 1.12 C27.83 1.3, 129.87 -0.67, 155.72 -0.62" stroke="#2f9e44" stroke-width="1" fill="none"></path></g><g transform="translate(945.594277894255 1994.6229764977165) rotate(0 78.05829897767745 0.10213014564010336)"><path d="M126 10.66 C135.62 9.05, 141.14 3.44, 154.87 -2.3 M128.24 9.97 C134.75 8.24, 140.33 4.32, 155.09 -0.87" stroke="#2f9e44" stroke-width="1" fill="none"></path></g><g transform="translate(945.594277894255 1994.6229764977165) rotate(0 78.05829897767745 0.10213014564010336)"><path d="M125.8 -9.86 C135.66 -6.3, 141.23 -6.76, 154.87 -2.3 M128.03 -10.55 C134.76 -7.61, 140.39 -6.86, 155.09 -0.87" stroke="#2f9e44" stroke-width="1" fill="none"></path></g></g><mask></mask><g transform="translate(970.6421015075094 1970.7136903214282) rotate(0 43.55995178222656 12.5)"><text x="0" y="0" font-family="Virgil, Segoe UI Emoji" font-size="20px" fill="#2f9e44" text-anchor="start" style="white-space: pre;" direction="ltr" dominant-baseline="text-before-edge">discovery</text></g><g stroke-linecap="round" transform="translate(868.1737321805598 2092.5371960768016) rotate(0 146.30206065014488 64.32736518858519)"><path d="M32 0 M32 0 C100.57 1.66, 166.25 0.75, 260.6 0 M32 0 C109.76 0.97, 185.64 1.17, 260.6 0 M260.6 0 C280.76 -0.36, 293.44 9.22, 292.6 32 M260.6 0 C282.29 -1.73, 293.61 9.11, 292.6 32 M292.6 32 C290.86 48.83, 291.74 63.99, 292.6 96.65 M292.6 32 C291.47 54.66, 293.24 79.11, 292.6 96.65 M292.6 96.65 C291.8 119.87, 283.83 128.04, 260.6 128.65 M292.6 96.65 C291.73 117.13, 281.97 127.03, 260.6 128.65 M260.6 128.65 C179.66 128.44, 100.78 129.43, 32 128.65 M260.6 128.65 C171.2 128.76, 83.13 128.43, 32 128.65 M32 128.65 C11.39 128.09, -0.62 116.5, 0 96.65 M32 128.65 C11.54 126.47, -1.79 117.48, 0 96.65 M0 96.65 C-0.34 72.8, 2.4 53.77, 0 32 M0 96.65 C-0.88 82.03, -0.57 68.09, 0 32 M0 32 C0.34 11.7, 12.03 0.1, 32 0 M0 32 C-0.07 11.53, 8.46 -1.16, 32 0" stroke="#f08c00" stroke-width="1" fill="none"></path></g><g transform="translate(902.3298552895429 2110.184526349776) rotate(0 112.09991455078125 50)"><text x="0" y="0" font-family="Virgil, Segoe UI Emoji" font-size="20px" fill="#f08c00" text-anchor="start" style="white-space: pre;" direction="ltr" dominant-baseline="text-before-edge">Movieapi</text><text x="0" y="25" font-family="Virgil, Segoe UI Emoji" font-size="20px" fill="#f08c00" text-anchor="start" style="white-space: pre;" direction="ltr" dominant-baseline="text-before-edge">+ dep: Eureka client</text><text x="0" y="50" font-family="Virgil, Segoe UI Emoji" font-size="20px" fill="#f08c00" text-anchor="start" style="white-space: pre;" direction="ltr" dominant-baseline="text-before-edge">+ props: app name </text><text x="0" y="75" font-family="Virgil, Segoe UI Emoji" font-size="20px" fill="#f08c00" text-anchor="start" style="white-space: pre;" direction="ltr" dominant-baseline="text-before-edge">    + registry endpoint</text></g><g stroke-linecap="round"><g transform="translate(1034.4001979776112 2091.3986586398355) rotate(0 51.84955795755383 -25.019690506277357)"><path d="M-0.12 0.44 C17.05 -7.92, 85.74 -42.09, 103.16 -50.48 M-1.64 -0.37 C15.88 -8.54, 87.77 -41.13, 105.34 -49.15" stroke="#f08c00" stroke-width="1" fill="none"></path></g><g transform="translate(1034.4001979776112 2091.3986586398355) rotate(0 51.84955795755383 -25.019690506277357)"><path d="M84.67 -29.83 C89.98 -34.24, 97.62 -40.88, 104.27 -49.99 M84.75 -28.65 C91.15 -36.46, 99.8 -43.7, 105.36 -49.9" stroke="#f08c00" stroke-width="1" fill="none"></path></g><g transform="translate(1034.4001979776112 2091.3986586398355) rotate(0 51.84955795755383 -25.019690506277357)"><path d="M76.17 -48.51 C84.08 -47.11, 94.36 -47.95, 104.27 -49.99 M76.25 -47.33 C85.57 -48.46, 97.27 -49, 105.36 -49.9" stroke="#f08c00" stroke-width="1" fill="none"></path></g></g><mask></mask><g transform="translate(1011.6294492382893 2040.7337426948434) rotate(0 37.81995391845703 12.5)"><text x="0" y="0" font-family="Virgil, Segoe UI Emoji" font-size="20px" fill="#f08c00" text-anchor="start" style="white-space: pre;" direction="ltr" dominant-baseline="text-before-edge">register</text></g></svg>